<svg xmlns="http://www.w3.org/2000/svg" width="55.487" height="55.49" viewBox="0 0 55.487 55.49">
  <g id="Group_31" data-name="Group 31" transform="translate(-465.815 -156.493)">
    <path id="Path_14" data-name="Path 14" d="M503.969,184.241l15.617-15.619a5.909,5.909,0,0,0,0-8.329l-2.082-2.081a5.9,5.9,0,0,0-8.329,0L493.56,173.831l-15.618-15.619a5.906,5.906,0,0,0-8.328,0l-2.081,2.081a5.908,5.908,0,0,0,0,8.329l15.614,15.616-15.614,15.617a5.908,5.908,0,0,0,0,8.329l2.081,2.081a5.906,5.906,0,0,0,8.328,0l15.618-15.617,15.615,15.617a5.908,5.908,0,0,0,8.329,0l2.082-2.081a5.91,5.91,0,0,0,0-8.329Z" fill="#fff"/>
  </g>
</svg>
