<svg xmlns="http://www.w3.org/2000/svg" width="66.38" height="55.316" viewBox="0 0 66.38 55.316">
  <g id="Group_23" data-name="Group 23" transform="translate(-460.369 -466.018)">
    <path id="Path_65" data-name="Path 65" d="M523.984,510.27H463.135a2.808,2.808,0,0,0-2.766,2.767v5.531a2.8,2.8,0,0,0,2.766,2.766h60.849a2.8,2.8,0,0,0,2.765-2.766v-5.531a2.8,2.8,0,0,0-2.765-2.767Z"/>
    <path id="Path_66" data-name="Path 66" d="M525.929,466.838a2.657,2.657,0,0,0-1.945-.82H463.135a2.8,2.8,0,0,0-2.766,2.763v5.534a2.808,2.808,0,0,0,2.766,2.765h60.849a2.8,2.8,0,0,0,2.765-2.765v-5.534A2.655,2.655,0,0,0,525.929,466.838Z"/>
    <path id="Path_67" data-name="Path 67" d="M523.984,488.143H463.135a2.808,2.808,0,0,0-2.766,2.765v5.533a2.8,2.8,0,0,0,2.766,2.766h60.849a2.8,2.8,0,0,0,2.765-2.766v-5.533a2.8,2.8,0,0,0-2.765-2.765Z"/>
  </g>
</svg>
